# xmcd
#
# Track frame offsets: 
#        150
#        18702
#        38393
#        61802
#        84258
#        102852
#        125195
#        147216
#        166092
#        182664
#        210298
#        230537
#        253417
#
# Disc length: 3684 seconds
#
# Revision: 0
# Processed by: cddbd v1.5.2PL0 Copyright (c) Steve Scherf et al.
# Submitted via: ExactAudioCopy v1.0b3
#
DISCID=a70e620d
DTITLE=央金 - DTS ES 正品 梦中的卓玛
DYEAR=2008
DGENRE=DTS ES
TTITLE0=坐上火车去拉萨
TTITLE1=遇上你是我的缘
TTITLE2=梦中的卓玛
TTITLE3=多彩的哈达
TTITLE4=雪山阿佳
TTITLE5=梦中的绿洲
TTITLE6=梦中的唐古拉
TTITLE7=拉萨酒吧
TTITLE8=阿爸
TTITLE9=神香
TTITLE10=缘
TTITLE11=天上西藏
TTITLE12=神奇的九寨
EXTD=
EXTT0=
EXTT1=
EXTT2=
EXTT3=
EXTT4=
EXTT5=
EXTT6=
EXTT7=
EXTT8=
EXTT9=
EXTT10=
EXTT11=
EXTT12=
PLAYORDER=
